# xmcd
# 
# Track frame offsets:
#     150
#     22075
#     36632
#     62615
#     83867
#     113922
#     143655
#     174430
#     212555
#     224882
# 
# Disc length: 3160
# 
# Revision: 2
# Processed by: cddbd v1.5.2PL0 Copyright (c) Steve Scherf et al.
# Submitted via: BonkEnc v1.0.8
# 
DISCID=970c560a
DTITLE=Lonely Woman - Demons' Diversions
DYEAR=2005
DGENRE=Contemporary Jazz
TTITLE0=Part #1
TTITLE1=Krom
TTITLE2=Obs Blufs
TTITLE3=Dangerous Happiness
TTITLE4=Locksmith
TTITLE5=Klegg - Horse Fly
TTITLE6=Demons' Dinner
TTITLE7=Sleep
TTITLE8=Emergency
TTITLE9=Ending
EXTD=YEAR: 2005
EXTT0=
EXTT1=
EXTT2=
EXTT3=
EXTT4=
EXTT5=
EXTT6=
EXTT7=
EXTT8=
EXTT9=
PLAYORDER=
